<svg width="121" height="60" viewBox="0 0 121 60" fill="none" xmlns="http://www.w3.org/2000/svg">
<path d="M9.69652 22.7752C8.42034 22.7752 7.30369 22.4661 6.34655 21.848C5.38942 21.2099 4.64166 20.3225 4.10327 19.1859C3.58482 18.0294 3.3256 16.6635 3.3256 15.0882C3.3256 13.4332 3.58482 12.0374 4.10327 10.9008C4.62172 9.76416 5.34954 8.90673 6.28673 8.32846C7.24387 7.73025 8.37049 7.43115 9.66661 7.43115C10.9827 7.43115 12.1492 7.76016 13.1661 8.41819C14.1831 9.05628 14.9807 9.9536 15.559 11.1101C16.1372 12.2667 16.4264 13.5927 16.4264 15.0882C16.4264 16.5837 16.1372 17.9197 15.559 19.0962C15.0006 20.2527 14.213 21.16 13.196 21.8181C12.199 22.4562 11.0325 22.7752 9.69652 22.7752ZM1.5908 22.4163V2.04727H5.95772V11.8579H5.68852V18.6775H5.95772L4.85103 22.4163H1.5908ZM8.85903 18.6775C9.75634 18.6775 10.4941 18.3485 11.0724 17.6904C11.6706 17.0125 11.9697 16.1451 11.9697 15.0882C11.9697 14.0513 11.6706 13.2039 11.0724 12.5458C10.4941 11.8679 9.75634 11.5289 8.85903 11.5289C7.98166 11.5289 7.24387 11.8679 6.64566 12.5458C6.04745 13.2039 5.74835 14.0513 5.74835 15.0882C5.74835 16.1451 6.04745 17.0125 6.64566 17.6904C7.24387 18.3485 7.98166 18.6775 8.85903 18.6775Z" fill="#3348A1"/>
<path d="M23.105 22.4163H18.7381V7.79007H23.105V22.4163ZM18.3493 3.18387C18.3493 2.4062 18.5786 1.77808 19.0372 1.29951C19.5158 0.820948 20.1439 0.581665 20.9216 0.581665C21.6992 0.581665 22.3174 0.820948 22.776 1.29951C23.2546 1.77808 23.4939 2.4062 23.4939 3.18387C23.4939 3.9416 23.2546 4.55975 22.776 5.03832C22.3174 5.49694 21.6992 5.72626 20.9216 5.72626C20.1439 5.72626 19.5158 5.49694 19.0372 5.03832C18.5786 4.55975 18.3493 3.9416 18.3493 3.18387Z" fill="#3348A1"/>
<path d="M29.2937 15.0583V14.49L35.2758 7.79007H40.1811L33.541 15.2976L33.4213 13.8619L40.3306 22.4163H35.2459L29.2937 15.0583ZM26.2727 2.04727H30.6097V22.4163H26.2727V2.04727Z" fill="#3348A1"/>
<path d="M47.0752 22.6855C45.6196 22.6855 44.3334 22.3764 43.2167 21.7582C42.12 21.1401 41.2626 20.2627 40.6445 19.1261C40.0462 17.9895 39.7471 16.6535 39.7471 15.1181C39.7471 13.6027 40.0462 12.2667 40.6445 11.1101C41.2626 9.9536 42.12 9.05628 43.2167 8.41819C44.3334 7.76016 45.6196 7.43115 47.0752 7.43115C48.5707 7.43115 49.8668 7.77013 50.9635 8.4481C52.0603 9.12607 52.9077 10.0433 53.5059 11.1999C54.1041 12.3365 54.4032 13.6226 54.4032 15.0583C54.4032 15.3175 54.3933 15.5668 54.3733 15.8061C54.3534 16.0454 54.3335 16.2348 54.3135 16.3744H43.1569V13.2637H50.9635L50.4551 14.5498C50.4551 13.4531 50.1759 12.5558 49.6176 11.8579C49.0792 11.16 48.2417 10.811 47.1051 10.811C46.0881 10.811 45.2706 11.1201 44.6524 11.7383C44.0542 12.3564 43.7551 13.174 43.7551 14.1909V15.836C43.7551 16.9327 44.0642 17.7901 44.6824 18.4083C45.3204 19.0065 46.1978 19.3056 47.3145 19.3056C48.2517 19.3056 48.9895 19.1162 49.5278 18.7373C50.0862 18.3584 50.5548 17.8898 50.9336 17.3315L53.8948 18.9766C53.2567 20.153 52.3594 21.0703 51.2028 21.7283C50.0463 22.3664 48.6704 22.6855 47.0752 22.6855Z" fill="#3348A1"/>
<path d="M71.1813 22.7752C69.6659 22.7752 68.3299 22.4562 67.1734 21.8181C66.0168 21.16 65.1195 20.2527 64.4814 19.0962C63.8433 17.9397 63.5243 16.6136 63.5243 15.1181C63.5243 13.6027 63.8433 12.2667 64.4814 11.1101C65.1195 9.9536 66.0168 9.05628 67.1734 8.41819C68.3299 7.76016 69.6659 7.43115 71.1813 7.43115C72.7168 7.43115 74.0627 7.76016 75.2193 8.41819C76.3758 9.05628 77.2731 9.9536 77.9112 11.1101C78.5692 12.2667 78.8982 13.6027 78.8982 15.1181C78.8982 16.6136 78.5692 17.9397 77.9112 19.0962C77.2731 20.2527 76.3758 21.16 75.2193 21.8181C74.0627 22.4562 72.7168 22.7752 71.1813 22.7752ZM71.1813 18.5279C72.1584 18.5279 72.9461 18.2188 73.5443 17.6007C74.1624 16.9626 74.4715 16.1351 74.4715 15.1181C74.4715 14.0812 74.1624 13.2437 73.5443 12.6057C72.9461 11.9676 72.1584 11.6485 71.1813 11.6485C70.2442 11.6485 69.4665 11.9676 68.8483 12.6057C68.2501 13.2238 67.951 14.0513 67.951 15.0882C67.951 16.1251 68.2501 16.9626 68.8483 17.6007C69.4665 18.2188 70.2442 18.5279 71.1813 18.5279Z" fill="#3348A1"/>
<path d="M81.7652 22.4163V6.83294C81.7652 5.73623 81.9646 4.79903 82.3634 4.02136C82.7822 3.24369 83.3604 2.65545 84.0982 2.25665C84.8559 1.8379 85.7333 1.62853 86.7303 1.62853C87.2488 1.62853 87.7074 1.65844 88.1062 1.71826C88.505 1.77808 88.8241 1.8379 89.0633 1.89772V5.87581C88.8839 5.83593 88.6845 5.79605 88.4651 5.75617C88.2657 5.71629 88.0165 5.69635 87.7174 5.69635C87.2189 5.69635 86.83 5.8459 86.5509 6.145C86.2916 6.42417 86.162 6.88279 86.162 7.52088V22.4163H81.7652ZM88.7343 12.2467H79.7911V8.23873H88.7343V12.2467Z" fill="#3348A1"/>
<path d="M8.14118 49.5749C6.52602 49.5749 5.24984 49.1761 4.31264 48.3785C3.39539 47.5809 2.93677 46.2748 2.93677 44.4602V34.8889L2.87695 34.7094L3.77426 31.18H7.30369V43.5031C7.30369 44.1811 7.46321 44.6696 7.78225 44.9687C8.1013 45.2479 8.52004 45.3875 9.03849 45.3875C9.33759 45.3875 9.61676 45.3675 9.87598 45.3276C10.1551 45.2678 10.3845 45.208 10.5639 45.1482V49.2459C10.2249 49.3456 9.85604 49.4254 9.45724 49.4852C9.07837 49.545 8.63968 49.5749 8.14118 49.5749ZM0.663574 38.7174V34.7094H10.5639V38.7174H0.663574Z" fill="#3348A1"/>
<path d="M13.479 49.3356V28.9666H17.8459V49.3356H13.479ZM22.7512 49.3356V40.6616C22.7512 39.8241 22.6017 39.2758 22.3026 39.0166C22.0035 38.7374 21.6047 38.5978 21.1062 38.5978C20.6874 38.5978 20.2487 38.6875 19.7901 38.867C19.3514 39.0265 18.9227 39.2558 18.504 39.5549C18.0852 39.854 17.7163 40.193 17.3973 40.5719L16.1111 37.4911C16.6296 36.9129 17.2178 36.3844 17.8758 35.9059C18.5339 35.4273 19.2517 35.0484 20.0294 34.7693C20.8071 34.4901 21.6246 34.3505 22.4821 34.3505C23.4591 34.3505 24.2567 34.52 24.8749 34.859C25.493 35.178 25.9616 35.6267 26.2807 36.205C26.6197 36.7832 26.839 37.4413 26.9387 38.1791C27.0583 38.8969 27.1182 39.6447 27.1182 40.4223V49.3356H22.7512Z" fill="#3348A1"/>
<path d="M36.3553 49.6048C34.8997 49.6048 33.6136 49.2958 32.4969 48.6776C31.4002 48.0595 30.5428 47.1821 29.9246 46.0455C29.3264 44.9089 29.0273 43.5729 29.0273 42.0375C29.0273 40.522 29.3264 39.186 29.9246 38.0295C30.5428 36.873 31.4002 35.9757 32.4969 35.3376C33.6136 34.6795 34.8997 34.3505 36.3553 34.3505C37.8509 34.3505 39.147 34.6895 40.2437 35.3675C41.3404 36.0454 42.1879 36.9627 42.7861 38.1192C43.3843 39.2558 43.6834 40.542 43.6834 41.9777C43.6834 42.2369 43.6734 42.4862 43.6535 42.7254C43.6335 42.9647 43.6136 43.1542 43.5937 43.2937H32.4371V40.1831H40.2437L39.7352 41.4692C39.7352 40.3725 39.4561 39.4752 38.8977 38.7773C38.3593 38.0794 37.5219 37.7304 36.3853 37.7304C35.3683 37.7304 34.5507 38.0395 33.9326 38.6576C33.3344 39.2758 33.0353 40.0933 33.0353 41.1103V42.7554C33.0353 43.8521 33.3444 44.7095 33.9625 45.3276C34.6006 45.9259 35.478 46.225 36.5946 46.225C37.5318 46.225 38.2696 46.0355 38.808 45.6567C39.3663 45.2778 39.8349 44.8092 40.2138 44.2509L43.1749 45.8959C42.5368 47.0724 41.6395 47.9897 40.483 48.6477C39.3264 49.2858 37.9506 49.6048 36.3553 49.6048Z" fill="#3348A1"/>
<path d="M61.7142 28.3872C65.0964 28.3872 67.6278 29.2379 69.3085 30.9394C70.9892 32.6409 71.8296 34.7988 71.8296 37.4132C71.8296 40.0277 71.2382 42.5591 70.0555 45.0075C68.8728 47.4352 67.2958 49.5724 65.3246 51.4191C61.2785 55.237 56.5165 57.81 51.0386 59.138L50.1983 57.0838C55.2196 55.0088 58.9338 52.4774 61.3407 49.4894C62.4405 48.1407 63.3638 46.6468 64.1108 45.0075C61.9736 47.4975 59.4007 48.7425 56.392 48.7425C54.1303 48.7425 52.211 48.0266 50.634 46.5949C49.057 45.1424 48.2686 43.1608 48.2686 40.6502C48.2686 37.7245 49.472 34.9855 51.879 32.4334C53.0202 31.2506 54.4519 30.2858 56.1741 29.5388C57.8963 28.7711 59.743 28.3872 61.7142 28.3872ZM65.8226 37.7556C65.8226 35.6392 65.4595 33.9481 64.7333 32.6824C64.0278 31.4166 62.9488 30.7838 61.4964 30.7838C60.0646 30.7838 58.747 31.3336 57.5436 32.4334C56.3401 33.5331 55.4168 34.8818 54.7735 36.4795C54.151 38.0565 53.8398 39.5919 53.8398 41.0859C53.8398 42.5799 54.1925 43.7937 54.898 44.7274C55.6035 45.6404 56.7551 46.0969 58.3528 46.0969C59.9505 46.0969 61.5897 45.2358 63.2704 43.5136C64.9719 41.7706 65.8226 39.8513 65.8226 37.7556Z" fill="#E4543A"/>
<path d="M85.462 56.0567C82.5778 56.0567 80.202 54.9881 78.3346 52.8509C76.4671 50.6929 75.606 48.037 75.7513 44.8831C75.9173 41.7084 76.7991 38.8657 78.3968 36.355C80.0153 33.8236 81.9761 31.8627 84.2793 30.4725C86.6032 29.0823 88.9376 28.3872 91.2823 28.3872C93.6477 28.3872 95.6708 28.9474 97.3515 30.0679C100.588 32.1844 102.093 35.5147 101.864 40.0588C101.698 43.2957 100.723 46.2525 98.9388 48.9292C95.8056 53.6808 91.3134 56.0567 85.462 56.0567ZM84.4038 52.8509C85.0263 53.3696 85.7733 53.629 86.6447 53.629C88.3047 53.629 89.7987 52.9339 91.1266 51.5436C93.7203 48.8255 95.1313 45.0387 95.3595 40.1833C95.484 37.5274 95.1624 35.3072 94.3947 33.5227C93.6269 31.7175 92.3508 30.8149 90.5664 30.8149C88.8027 30.8149 87.039 32.1117 85.2753 34.7054C83.5116 37.2784 82.5363 40.619 82.3496 44.7274C82.1628 48.8358 82.8476 51.5436 84.4038 52.8509Z" fill="#E4543A"/>
<path d="M105.631 55.1229C104.282 54.6457 103.317 54.0855 102.736 53.4422C102.155 52.7782 101.864 52.052 101.864 51.2635C101.864 50.475 102.082 49.8214 102.518 49.3027C102.954 48.784 103.524 48.5246 104.23 48.5246C104.956 48.5246 105.589 48.7425 106.129 49.1782C106.689 49.5932 106.969 50.1949 106.969 50.9834C106.969 51.7511 106.492 52.3944 105.537 52.9131C106.326 53.5978 107.529 53.9402 109.148 53.9402C112.654 53.9402 114.408 52.9442 114.408 50.9523C114.408 49.7073 113.297 48.7113 111.077 47.9644C110.164 47.6531 109.241 47.3211 108.307 46.9684C107.394 46.6156 106.595 46.0969 105.911 45.4122C105.226 44.7274 104.852 43.8975 104.79 42.9222C104.79 41.5113 105.257 40.3182 106.191 39.3429C107.954 37.4755 110.59 36.5418 114.096 36.5418C115.819 36.5418 117.344 36.8737 118.672 37.5377C120 38.181 120.664 39.0213 120.664 40.0588C120.664 41.0963 120.394 41.8433 119.854 42.2997C119.336 42.7562 118.723 42.9845 118.018 42.9845C117.312 42.9845 116.711 42.7977 116.213 42.4242C115.736 42.03 115.497 41.4905 115.497 40.8058C115.497 40.121 115.902 39.5297 116.711 39.0317C116.213 38.679 115.352 38.5026 114.127 38.5026C112.903 38.5026 111.803 38.6893 110.828 39.0628C109.853 39.4156 109.365 39.9032 109.365 40.5257C109.365 41.1481 109.718 41.6669 110.424 42.0819C111.15 42.4969 112.021 42.8807 113.038 43.2335C114.055 43.5862 115.072 43.9908 116.088 44.4473C117.105 44.9038 117.966 45.5574 118.672 46.4081C119.398 47.2589 119.761 48.3067 119.761 49.5517C119.761 50.7967 119.253 51.9275 118.236 52.9442C116.306 54.8739 113.671 55.8388 110.33 55.8388C108.567 55.8388 107 55.6002 105.631 55.1229Z" fill="#E4543A"/>
</svg>
